<?xml version="1.0" encoding="utf-8"?>
<!-- Generator: Adobe Illustrator 23.0.4, SVG Export Plug-In . SVG Version: 6.00 Build 0)  -->
<svg version="1.1"
	 id="ubuntu__x5F__white_x26_orange_x28_cof_x29_" inkscape:version="0.91 r13725" sodipodi:docname="ubuntu_white-orange(cof)_hex_su.svg" xmlns:cc="http://creativecommons.org/ns#" xmlns:dc="http://purl.org/dc/elements/1.1/" xmlns:inkscape="http://www.inkscape.org/namespaces/inkscape" xmlns:rdf="http://www.w3.org/1999/02/22-rdf-syntax-ns#" xmlns:sodipodi="http://sodipodi.sourceforge.net/DTD/sodipodi-0.dtd" xmlns:svg="http://www.w3.org/2000/svg"
	 xmlns="http://www.w3.org/2000/svg" xmlns:xlink="http://www.w3.org/1999/xlink" x="0px" y="0px" viewBox="0 0 340.2 164.6"
	 style="enable-background:new 0 0 340.2 164.6;" xml:space="preserve">
<style type="text/css">
	.st0{fill:#E95420;}
	.st1{fill:#FFFFFF;}
</style>
<sodipodi:namedview  bordercolor="#666666" borderopacity="1" gridtolerance="10" guidetolerance="10" id="namedview35" inkscape:current-layer="ubuntu__x5F__white_x26_orange_x28_cof_x29_" inkscape:cx="42.805066" inkscape:cy="104.882" inkscape:pageopacity="0" inkscape:pageshadow="2" inkscape:window-height="598" inkscape:window-maximized="0" inkscape:window-width="1492" inkscape:window-x="0" inkscape:window-y="24" inkscape:zoom="0.70085162" objecttolerance="10" pagecolor="#ff8112" showgrid="false" units="mm">
	</sodipodi:namedview>
<g id="g3" transform="translate(0,-4.0236005)">
</g>
<g id="g5" transform="translate(0,-4.0236005)">
</g>
<g id="g7" transform="translate(0,-4.0236005)">
</g>
<g id="g9" transform="translate(0,-4.0236005)">
</g>
<g id="g13">
	<path id="path15" inkscape:connector-curvature="0" d="M83.8,106c-1.4,0.3-3.2,0.7-5.5,1.1c-2.3,0.4-4.9,0.6-7.9,0.6
		c-2.6,0-4.8-0.4-6.5-1.1c-1.8-0.8-3.2-1.8-4.3-3.2c-1.1-1.4-1.9-3-2.3-4.9c-0.5-1.9-0.7-4-0.7-6.2V73.4h6V91c0,4.1,0.6,7,1.9,8.8
		c1.3,1.8,3.5,2.7,6.5,2.7c0.6,0,1.3,0,2-0.1c0.7,0,1.3-0.1,1.9-0.2c0.6-0.1,1.2-0.1,1.6-0.2c0.5-0.1,0.9-0.1,1.1-0.2V73.4h6
		L83.8,106L83.8,106z"/>
	<path id="path17" inkscape:connector-curvature="0" d="M98.5,74.9c0.7-0.5,1.8-1,3.3-1.5c1.5-0.5,3.2-0.8,5.1-0.8
		c2.4,0,4.6,0.4,6.4,1.3c1.9,0.9,3.5,2.1,4.8,3.6c1.3,1.6,2.3,3.4,2.9,5.6c0.7,2.2,1,4.5,1,7.1c0,2.7-0.4,5.2-1.2,7.3
		c-0.8,2.2-1.9,4-3.4,5.5c-1.5,1.5-3.2,2.7-5.3,3.5c-2.1,0.8-4.4,1.2-7,1.2c-2.8,0-5.3-0.2-7.4-0.6c-2.2-0.4-3.9-0.8-5.3-1.2V57.9
		l6-1L98.5,74.9L98.5,74.9z M98.5,101.7c0.6,0.2,1.5,0.3,2.6,0.5c1.1,0.2,2.5,0.2,4.1,0.2c3.2,0,5.8-1.1,7.8-3.2
		c1.9-2.1,2.9-5.2,2.9-9.1c0-1.7-0.2-3.3-0.5-4.8c-0.3-1.5-0.9-2.8-1.7-3.9c-0.8-1.1-1.8-2-3-2.6c-1.2-0.6-2.7-0.9-4.4-0.9
		c-1.6,0-3.1,0.3-4.5,0.8c-1.4,0.6-2.4,1.1-3.2,1.7L98.5,101.7L98.5,101.7z"/>
	<path id="path19" inkscape:connector-curvature="0" d="M155.6,106c-1.4,0.3-3.2,0.7-5.5,1.1c-2.3,0.4-4.9,0.6-7.9,0.6
		c-2.6,0-4.8-0.4-6.5-1.1c-1.8-0.8-3.2-1.8-4.3-3.2c-1.1-1.4-1.9-3-2.3-4.9c-0.5-1.9-0.7-4-0.7-6.2V73.4h6V91c0,4.1,0.6,7,1.9,8.8
		c1.3,1.8,3.5,2.7,6.5,2.7c0.6,0,1.3,0,2-0.1c0.7,0,1.3-0.1,1.9-0.2c0.6-0.1,1.2-0.1,1.6-0.2c0.5-0.1,0.8-0.1,1.1-0.2V73.4h6
		L155.6,106L155.6,106z"/>
	<path id="path21" inkscape:connector-curvature="0" d="M164.3,74.3c1.4-0.3,3.2-0.7,5.5-1.1c2.3-0.4,4.9-0.6,7.9-0.6
		c2.7,0,4.9,0.4,6.7,1.1c1.8,0.8,3.2,1.8,4.2,3.2c1.1,1.4,1.8,3,2.2,4.9c0.4,1.9,0.6,4,0.6,6.3V107h-6V89.4c0-2.1-0.1-3.8-0.4-5.3
		c-0.3-1.5-0.7-2.7-1.4-3.6c-0.6-0.9-1.5-1.6-2.6-2c-1.1-0.4-2.4-0.6-4-0.6c-0.6,0-1.3,0-2,0.1c-0.7,0-1.3,0.1-2,0.2
		c-0.6,0.1-1.2,0.1-1.7,0.2c-0.5,0.1-0.9,0.2-1.1,0.2V107h-6V74.3L164.3,74.3z"/>
	<path id="path23" inkscape:connector-curvature="0" d="M205.3,73.4h12.7v5h-12.7v15.5c0,1.7,0.1,3.1,0.4,4.2c0.3,1.1,0.6,2,1.2,2.6
		c0.5,0.6,1.2,1.1,1.9,1.3c0.8,0.3,1.7,0.4,2.7,0.4c1.9,0,3.3-0.2,4.4-0.6c1.1-0.4,1.8-0.7,2.2-0.9l1.3,4.9
		c-0.6,0.3-1.7,0.7-3.2,1.2c-1.5,0.5-3.3,0.7-5.2,0.7c-2.3,0-4.2-0.3-5.7-0.9c-1.5-0.6-2.7-1.5-3.6-2.6c-0.9-1.2-1.5-2.6-1.9-4.3
		c-0.4-1.7-0.6-3.7-0.6-5.9V64l6-1L205.3,73.4L205.3,73.4z"/>
	<path id="path25" inkscape:connector-curvature="0" d="M250.8,106c-1.4,0.3-3.2,0.7-5.5,1.1c-2.3,0.4-4.9,0.6-7.9,0.6
		c-2.6,0-4.8-0.4-6.5-1.1c-1.8-0.8-3.2-1.8-4.3-3.2c-1.1-1.4-1.9-3-2.3-4.9c-0.5-1.9-0.7-4-0.7-6.2V73.4h6V91c0,4.1,0.6,7,1.9,8.8
		c1.3,1.8,3.5,2.7,6.5,2.7c0.6,0,1.3,0,2-0.1c0.7,0,1.3-0.1,1.9-0.2c0.6-0.1,1.2-0.1,1.6-0.2c0.5-0.1,0.9-0.1,1.1-0.2V73.4h6
		L250.8,106L250.8,106z"/>
</g>
<circle id="circle29" class="st0" cx="269.9" cy="70.4" r="13.6"/>
<g id="g31">
	<path id="path33" inkscape:connector-curvature="0" class="st1" d="M263,70.4c0,0.9-0.7,1.7-1.7,1.7c-0.9,0-1.7-0.7-1.7-1.7
		c0-0.9,0.7-1.7,1.7-1.7C262.3,68.7,263,69.5,263,70.4z M272.5,78.5c0.5,0.8,1.5,1.1,2.3,0.6c0.8-0.5,1.1-1.5,0.6-2.3
		c-0.5-0.8-1.5-1.1-2.3-0.6C272.3,76.7,272,77.7,272.5,78.5z M275.3,64c0.5-0.8,0.2-1.8-0.6-2.3c-0.8-0.5-1.8-0.2-2.3,0.6
		c-0.5,0.8-0.2,1.8,0.6,2.3C273.9,65.1,274.9,64.8,275.3,64z M269.7,65.7c2.5,0,4.5,1.9,4.7,4.3l2.4,0c-0.1-1.8-0.9-3.4-2.1-4.6
		c-0.6,0.2-1.4,0.2-2-0.2c-0.6-0.4-1-1-1.1-1.7c-0.6-0.2-1.2-0.2-1.9-0.2c-1.1,0-2.2,0.3-3.2,0.7l1.2,2.1
		C268.3,65.8,269,65.7,269.7,65.7L269.7,65.7z M265,70.4c0-1.6,0.8-3,2-3.9l-1.2-2.1c-1.4,1-2.5,2.4-2.9,4.1
		c0.5,0.4,0.9,1.1,0.9,1.8c0,0.7-0.3,1.4-0.9,1.8c0.4,1.7,1.5,3.2,2.9,4.1l1.2-2.1C265.8,73.4,265,72,265,70.4L265,70.4z
		 M269.7,75.1c-0.7,0-1.4-0.2-2-0.4l-1.2,2.1c1,0.5,2,0.7,3.2,0.7c0.6,0,1.3-0.1,1.9-0.2c0.1-0.7,0.5-1.3,1.1-1.7
		c0.6-0.4,1.4-0.4,2-0.2c1.2-1.2,2-2.8,2.1-4.6l-2.4,0C274.2,73.2,272.2,75.1,269.7,75.1L269.7,75.1z"/>
</g>
</svg>
